
<svg xmlns="http://www.w3.org/2000/svg" version="1.1" xmlns:xlink="http://www.w3.org/1999/xlink" preserveAspectRatio="none" x="0px" y="0px" width="550px" height="400px" viewBox="0 0 550 400">
<defs>
<g id="Layer1_0_FILL">
<path fill="#44C1C3" stroke="none" d="
M 561.95 407.95
L 561.95 -5 -9 -5 -9 407.95 561.95 407.95 Z"/>
</g>

<g id="Symbol_1_0_Layer0_0_FILL">
<path fill="#404041" stroke="none" d="
M 53.7 33.65
Q 53.7 25.35 47.85 19.5 42 13.65 33.7 13.65 25.4 13.65 19.5 19.5 13.65 25.35 13.65 33.65 13.65 42 19.5 47.85 25.4 53.7 33.7 53.7 42 53.7 47.85 47.85 53.7 41.95 53.7 33.65
M 49.95 40.55
Q 48.55 43.85 46.15 46.15 43.85 48.55 40.55 49.95 37.3 51.35 33.7 51.35 30.05 51.35 26.8 49.95 23.5 48.55 21.2 46.15 18.8 43.85 17.4 40.55 16 37.3 16 33.65 16 30.05 17.4 26.8 18.8 23.5 21.2 21.2 23.5 18.8 26.8 17.4 30.05 16 33.7 16 37.3 16 40.55 17.4 43.85 18.8 46.15 21.2 48.55 23.5 49.95 26.8 51.35 30.05 51.35 33.65 51.35 37.3 49.95 40.55 Z"/>
</g>

<g id="Symbol_1_0_Layer0_1_MEMBER_0_FILL">
<path fill="#4AC0C1" stroke="none" d="
M 42.35 22.3
Q 43.6 21.9 45 22.75 46.4 23.6 46.75 25 47.65 28.25 44.55 30.05 44.45 28.45 43.2 28.55 41.8 28.55 41.9 30.55
L 41.9 42.75 24.7 24.6 24.7 37.15
Q 23.1 37.15 21.8 38.3 20.25 39.6 20.2 41.6 20.15 43.85 21.35 45.2 22.35 46.4 23.85 46.55 26.65 46.9 28.7 45 30.75 43.1 30.75 40.25
L 30.75 38.25 38.2 46.75 39.25 46.75
Q 32.2 38.65 28.7 34.5
L 28.6 41.95
Q 28.6 45.45 25.05 45.95 23.8 46.1 22.6 45.15 21.4 44.2 21.05 42.7 20.7 41.15 21.4 39.8 22.1 38.5 23.25 38.25
L 23.3 39.05
Q 23.55 39.85 24.5 39.85 25.25 39.8 25.45 39 25.55 38.5 25.45 38
L 25.5 26.25 42.65 44.2 42.65 31.25
Q 44.25 31.45 45.85 30.2 47.5 28.9 47.7 26.85 47.85 24.9 46.85 23.4 45.75 21.65 43.8 21.55 40.65 21.35 39.2 23.2 37.55 25.25 37.35 30.55
L 28.45 21.35 27.5 21.35 39.6 34.1 39.6 26.4
Q 39.7 23.15 42.35 22.3 Z"/>
</g>

<g id="Symbol_1_0_Layer0_1_MEMBER_1_FILL">
<path fill="#FFFFFF" stroke="none" d="
M 331.55 174.4
Q 332.2 165.7 327.75 159 322.85 151.15 314.1 150.7 300.05 149.85 293.55 158.1 286.2 167.25 285.3 190.95
L 245.5 149.85 241.25 149.85 295.35 206.8 295.35 172.4
Q 295.8 157.85 307.65 154.05 313.25 152.3 319.5 156.1 325.75 159.9 327.3 166.15 331.35 180.65 317.45 188.7 317.05 181.55 311.45 182 305.2 182 305.65 190.95
L 305.65 245.5 228.75 164.35 228.75 220.45
Q 221.6 220.45 215.8 225.6 208.85 231.4 208.65 240.35 208.4 250.4 213.8 256.45 218.25 261.8 224.95 262.45 237.45 264.05 246.65 255.55 255.8 247.05 255.8 234.3
L 255.8 225.35 289.1 263.35 293.8 263.35
Q 262.25 227.15 246.65 208.6
L 246.2 241.9
Q 246.2 257.55 230.3 259.8 224.75 260.45 219.35 256.2 214 251.95 212.45 245.25 210.85 238.35 214 232.3 217.15 226.5 222.25 225.35
L 222.5 228.95
Q 223.6 232.5 227.85 232.5 231.2 232.3 232.1 228.7 232.55 226.5 232.1 224.25
L 232.35 171.75 309 251.95 309 194.1
Q 316.15 194.95 323.3 189.4 330.65 183.55 331.55 174.4 Z"/>
</g>

<path id="Layer1_0_1_STROKES" stroke="#44C1C3" stroke-width="1" stroke-linejoin="round" stroke-linecap="round" fill="none" d="
M -9 -5
L 561.95 -5 561.95 407.95 -9 407.95 -9 -5 Z"/>

<path id="Symbol_1_0_Layer0_1_MEMBER_1_1_STROKES" stroke="#FFFFFF" stroke-width="1" stroke-linejoin="miter" stroke-linecap="butt" stroke-miterlimit="10" fill="none" d="
M 255.8 225.35
L 255.8 234.3
Q 255.8 247.05 246.65 255.55 237.45 264.05 224.95 262.45 218.25 261.8 213.8 256.45 208.4 250.4 208.65 240.35 208.85 231.4 215.8 225.6 221.6 220.45 228.75 220.45
L 228.75 164.35 305.65 245.5 305.65 190.95
Q 305.2 182 311.45 182 317.05 181.55 317.45 188.7 331.35 180.65 327.3 166.15 325.75 159.9 319.5 156.1 313.25 152.3 307.65 154.05 295.8 157.85 295.35 172.4
L 295.35 206.8 241.25 149.85 245.5 149.85 285.3 190.95
Q 286.2 167.25 293.55 158.1 300.05 149.85 314.1 150.7 322.85 151.15 327.75 159 332.2 165.7 331.55 174.4 330.65 183.55 323.3 189.4 316.15 194.95 309 194.1
L 309 251.95 232.35 171.75 232.1 224.25
Q 232.55 226.5 232.1 228.7 231.2 232.3 227.85 232.5 223.6 232.5 222.5 228.95
L 222.25 225.35
Q 217.15 226.5 214 232.3 210.85 238.35 212.45 245.25 214 251.95 219.35 256.2 224.75 260.45 230.3 259.8 246.2 257.55 246.2 241.9
L 246.65 208.6
Q 262.25 227.15 293.8 263.35
L 289.1 263.35 255.8 225.35 Z"/>
</defs>

<g transform="matrix( 1, 0, 0, 1, 0,0) ">
<use xlink:href="#Layer1_0_FILL"/>

<use xlink:href="#Layer1_0_1_STROKES"/>
</g>

<g transform="matrix( 1, 0, 0, 1, 178.9,114.95) ">
<g transform="matrix( 4.47064208984375, 0, 0, 4.47064208984375, -61,-61) ">
<use xlink:href="#Symbol_1_0_Layer0_0_FILL"/>
</g>

<g transform="matrix( 4.469696044921875, 0, 0, 4.469696044921875, -60.55,-60.55) ">
<use xlink:href="#Symbol_1_0_Layer0_1_MEMBER_0_FILL"/>
</g>

<g transform="matrix( 1, 0, 0, 1, -178.9,-114.95) ">
<use xlink:href="#Symbol_1_0_Layer0_1_MEMBER_1_FILL"/>

<use xlink:href="#Symbol_1_0_Layer0_1_MEMBER_1_1_STROKES"/>
</g>
</g>
</svg>
